<?xml version="1.0" encoding="utf-8"?>
<!-- Generator: Adobe Illustrator 24.0.3, SVG Export Plug-In . SVG Version: 6.00 Build 0)  -->
<svg version="1.1" id="Capa_1" xmlns="http://www.w3.org/2000/svg" xmlns:xlink="http://www.w3.org/1999/xlink" x="0px" y="0px"
	 viewBox="0 0 210 85" style="enable-background:new 0 0 210 85;" xml:space="preserve">
<style type="text/css">
	.st0{fill:#F7C873;}
	.st1{font-family:'Lobster-Regular';}
	.st2{font-size:33.5525px;}
	.st3{font-family:'OpenSans-Regular';}
	.st4{font-size:12px;}
	.st5{fill:none;stroke:#F7C873;stroke-width:0.75;stroke-miterlimit:10;}
</style>
<text transform="matrix(1 0 0 1 68.6911 43.5338)" class="st0 st1 st2">Don Pablo</text>
<text transform="matrix(1 0 0 1 108.6539 63.3482)" class="st0 st3 st4">Panaderia</text>
<g>
	<g>
		<path class="st0" d="M27.02,8.65c-0.81,0.1-1.65,0.23-2.5,0.45c-3.59,0.97-6.9,2.65-9.86,5.04c-2.37,1.9-4.49,4.2-6.34,6.91
			c-3.15,4.55-4.4,8.59-4.43,8.78l0.09,0.03c-1.06,1.19-1.9,2.68-2.53,4.42c-0.84,2.39-1.28,5.36-1.28,8.81
			c0,3.32,0.44,6.17,1.25,8.49c0.62,1.71,1.47,3.2,2.53,4.39c0.37,1.07,1.65,4.55,4.34,8.46c1.84,2.68,3.99,5,6.34,6.91
			c2.96,2.39,6.27,4.07,9.86,5.04c0.84,0.23,1.65,0.36,2.5,0.45c1.37,0.61,6.34,2.68,11.83,3.78c3.81,0.77,7.08,0.87,9.74,0.39
			c3.62-0.71,6.09-2.55,7.4-5.52c0.75-1.68,1.25-3.97,1.25-6.39c0-2.29-0.44-4.75-1.56-6.91c-1.72-3.39-4.77-5.58-8.86-6.39
			c-0.34-0.94-0.87-1.81-1.56-2.55l-2.72-2.94c0.97-2.03,1.44-4.45,1.44-7.2c0-2.94-0.56-5.52-1.65-7.65l2.93-3.16
			c0.69-0.74,1.22-1.61,1.56-2.55c4.06-0.81,7.12-3,8.86-6.39c1.12-2.16,1.56-4.62,1.56-6.91c0-2.42-0.5-4.71-1.25-6.39
			c-1.31-2.97-3.81-4.81-7.4-5.52C45.9,4,42.62,4.13,38.82,4.9C33.35,5.97,28.36,8.07,27.02,8.65z M30.8,54.52
			c-1.53,0.23-3.15,0.55-4.9,0.87c-6.83,1.32-14.57,2.84-18.88-0.87c-1.15-1-2.03-2.32-2.65-4.04c-0.72-1.97-1.06-4.42-1.06-7.36
			c0-3.07,0.37-5.68,1.09-7.71c0.62-1.78,1.5-3.13,2.68-4.13c4.18-3.55,11.67-2,18.26-0.65c1.93,0.39,3.74,0.77,5.46,1.03
			c6.74,0.97,10.02,4.71,10.02,11.43C40.81,49.77,37.54,53.52,30.8,54.52z M52.86,63.65c1.72,3.32,1.4,7.78,0.25,10.43
			c-0.87,1.97-2.53,3.16-5.09,3.65c-2.25,0.45-5.12,0.32-8.52-0.36c-2.03-0.39-3.99-0.97-5.71-1.52c1.78-0.71,3.53-1.78,5.15-3.23
			c3.59-3.16,6.12-7.46,7.61-10.52c0.44-0.94,0.72-1.9,0.78-2.91C49.86,59.97,51.74,61.46,52.86,63.65z M42.97,55.46
			c1.28,1.39,1.59,3.49,0.75,5.2c-1.34,2.78-3.65,6.71-6.83,9.49c-1.65,1.45-3.4,2.45-5.18,3c-2.03,0.61-4.18,0.61-6.4,0.03
			c-3.15-0.84-6.09-2.32-8.68-4.42c-2.12-1.68-4.03-3.74-5.71-6.17c-0.84-1.19-1.53-2.39-2.09-3.42c1.84,0.65,3.99,0.94,6.49,0.9
			c3.68-0.03,7.68-0.81,11.17-1.48c1.69-0.32,3.28-0.65,4.74-0.84c4.15-0.61,7.33-2.2,9.49-4.68L42.97,55.46z M40.44,32.73
			c-2.15-2.29-5.24-3.74-9.18-4.33c-1.62-0.23-3.4-0.61-5.27-1c-3.59-0.74-7.27-1.52-10.86-1.61c-2.5-0.06-4.68,0.23-6.52,0.9
			c0.59-1.16,1.37-2.49,2.31-3.87c1.69-2.42,3.59-4.49,5.71-6.17c2.62-2.1,5.52-3.58,8.68-4.42c2.22-0.58,4.37-0.58,6.4,0.03
			c1.78,0.55,3.53,1.55,5.18,3c3.18,2.81,5.46,6.71,6.83,9.49c0.84,1.71,0.53,3.81-0.75,5.2L40.44,32.73z M48.02,7.71
			c2.56,0.52,4.24,1.71,5.09,3.65c1.19,2.65,1.47,7.1-0.25,10.43c-1.12,2.2-3,3.71-5.55,4.45c-0.06-1-0.31-1.97-0.78-2.91
			c-1.5-3.07-4.03-7.36-7.61-10.52c-1.62-1.45-3.37-2.52-5.15-3.23c1.72-0.55,3.68-1.1,5.71-1.52C42.87,7.39,45.74,7.26,48.02,7.71z
			"/>
	</g>
	<g>
		<path class="st0" d="M16.91,43.41c0-0.46,0.36-0.84,0.81-0.84c0.45,0,0.81,0.38,0.81,0.84c0,0.46-0.36,0.84-0.81,0.84
			C17.27,44.25,16.91,43.88,16.91,43.41z"/>
	</g>
	<g>
		<path class="st0" d="M14.22,47.22c0-0.46,0.36-0.84,0.81-0.84c0.45,0,0.81,0.38,0.81,0.84c0,0.46-0.36,0.84-0.81,0.84
			C14.59,48.06,14.22,47.69,14.22,47.22z"/>
	</g>
	<g>
		<path class="st0" d="M10.85,44.35c0-0.46,0.36-0.84,0.81-0.84c0.45,0,0.81,0.38,0.81,0.84s-0.36,0.84-0.81,0.84
			C11.22,45.19,10.85,44.81,10.85,44.35z"/>
	</g>
	<g>
		<path class="st0" d="M10.64,37.31c0-0.46,0.36-0.84,0.81-0.84c0.45,0,0.81,0.38,0.81,0.84c0,0.46-0.36,0.84-0.81,0.84
			C11,38.15,10.64,37.78,10.64,37.31z"/>
	</g>
	<g>
		<ellipse class="st0" cx="9.61" cy="53.23" rx="0.81" ry="0.84"/>
	</g>
	<g>
		<path class="st0" d="M8.64,34.73c0-0.46,0.36-0.84,0.81-0.84c0.45,0,0.81,0.38,0.81,0.84c0,0.46-0.36,0.84-0.81,0.84
			C9,35.57,8.64,35.19,8.64,34.73z"/>
	</g>
	<g>
		<path class="st0" d="M12.16,32.18c0-0.46,0.36-0.84,0.81-0.84c0.45,0,0.81,0.38,0.81,0.84c0,0.46-0.36,0.84-0.81,0.84
			C12.53,33.02,12.16,32.64,12.16,32.18z"/>
	</g>
	<g>
		<path class="st0" d="M5.49,34.15c0-0.46,0.36-0.84,0.81-0.84s0.81,0.38,0.81,0.84c0,0.46-0.36,0.84-0.81,0.84
			S5.49,34.61,5.49,34.15z"/>
	</g>
	<g>
		<path class="st0" d="M4.55,38.67c0-0.46,0.36-0.84,0.81-0.84s0.81,0.38,0.81,0.84c0,0.46-0.36,0.84-0.81,0.84
			S4.55,39.13,4.55,38.67z"/>
	</g>
	<g>
		<ellipse class="st0" cx="17.75" cy="50.77" rx="0.81" ry="0.84"/>
	</g>
	<g>
		<ellipse class="st0" cx="17.22" cy="63.65" rx="0.81" ry="0.84"/>
	</g>
	<g>
		<path class="st0" d="M20.59,67.69c0-0.46,0.36-0.84,0.81-0.84c0.45,0,0.81,0.38,0.81,0.84c0,0.46-0.36,0.84-0.81,0.84
			C20.95,68.53,20.59,68.15,20.59,67.69z"/>
	</g>
	<g>
		<path class="st0" d="M29.3,69.66c0-0.46,0.36-0.84,0.81-0.84c0.45,0,0.81,0.38,0.81,0.84c0,0.46-0.36,0.84-0.81,0.84
			C29.66,70.5,29.3,70.12,29.3,69.66z"/>
	</g>
	<g>
		<path class="st0" d="M42.84,70.98c0-0.46,0.36-0.84,0.81-0.84s0.81,0.38,0.81,0.84c0,0.46-0.36,0.84-0.81,0.84
			S42.84,71.45,42.84,70.98z"/>
	</g>
	<g>
		<ellipse class="st0" cx="46.96" cy="72.89" rx="0.81" ry="0.84"/>
	</g>
	<g>
		<path class="st0" d="M41.97,74.34c0-0.46,0.36-0.84,0.81-0.84s0.81,0.38,0.81,0.84c0,0.46-0.36,0.84-0.81,0.84
			S41.97,74.8,41.97,74.34z"/>
	</g>
	<g>
		<path class="st0" d="M48.74,74.5c0-0.46,0.36-0.84,0.81-0.84s0.81,0.38,0.81,0.84c0,0.46-0.36,0.84-0.81,0.84
			S48.74,74.96,48.74,74.5z"/>
	</g>
	<g>
		<path class="st0" d="M44.87,76.28c0-0.46,0.36-0.84,0.81-0.84s0.81,0.38,0.81,0.84c0,0.46-0.36,0.84-0.81,0.84
			S44.87,76.74,44.87,76.28z"/>
	</g>
	<g>
		<path class="st0" d="M38.47,75.4c0-0.46,0.36-0.84,0.81-0.84s0.81,0.38,0.81,0.84c0,0.46-0.36,0.84-0.81,0.84
			S38.47,75.87,38.47,75.4z"/>
	</g>
	<g>
		<ellipse class="st0" cx="26.15" cy="66.17" rx="0.81" ry="0.84"/>
	</g>
	<g>
		<path class="st0" d="M26.21,69.4c0-0.46,0.36-0.84,0.81-0.84s0.81,0.38,0.81,0.84c0,0.46-0.36,0.84-0.81,0.84
			S26.21,69.86,26.21,69.4z"/>
	</g>
	<g>
		<ellipse class="st0" cx="16.63" cy="66.43" rx="0.81" ry="0.84"/>
	</g>
	<g>
		<path class="st0" d="M23.62,63.85c0-0.46,0.36-0.84,0.81-0.84s0.81,0.38,0.81,0.84s-0.36,0.84-0.81,0.84S23.62,64.31,23.62,63.85z
			"/>
	</g>
	<g>
		<path class="st0" d="M19.94,63.07c0-0.46,0.36-0.84,0.81-0.84s0.81,0.38,0.81,0.84c0,0.46-0.36,0.84-0.81,0.84
			S19.94,63.54,19.94,63.07z"/>
	</g>
	<g>
		<path class="st0" d="M23.37,70.56c0-0.46,0.36-0.84,0.81-0.84c0.45,0,0.81,0.38,0.81,0.84c0,0.46-0.36,0.84-0.81,0.84
			C23.73,71.4,23.37,71.03,23.37,70.56z"/>
	</g>
	<g>
		<ellipse class="st0" cx="17.22" cy="22.92" rx="0.81" ry="0.84"/>
	</g>
	<g>
		<path class="st0" d="M20.59,18.88c0-0.46,0.36-0.84,0.81-0.84c0.45,0,0.81,0.38,0.81,0.84s-0.36,0.84-0.81,0.84
			C20.95,19.72,20.59,19.35,20.59,18.88z"/>
	</g>
	<g>
		<path class="st0" d="M29.3,16.91c0-0.46,0.36-0.84,0.81-0.84c0.45,0,0.81,0.38,0.81,0.84s-0.36,0.84-0.81,0.84
			C29.66,17.75,29.3,17.38,29.3,16.91z"/>
	</g>
	<g>
		<path class="st0" d="M42.84,15.59c0-0.46,0.36-0.84,0.81-0.84s0.81,0.38,0.81,0.84c0,0.46-0.36,0.84-0.81,0.84
			S42.84,16.05,42.84,15.59z"/>
	</g>
	<g>
		<path class="st0" d="M46.15,13.68c0-0.46,0.36-0.84,0.81-0.84s0.81,0.38,0.81,0.84c0,0.46-0.36,0.84-0.81,0.84
			S46.15,14.15,46.15,13.68z"/>
	</g>
	<g>
		<path class="st0" d="M41.97,12.23c0-0.46,0.36-0.84,0.81-0.84s0.81,0.38,0.81,0.84c0,0.46-0.36,0.84-0.81,0.84
			S41.97,12.7,41.97,12.23z"/>
	</g>
	<g>
		<ellipse class="st0" cx="49.55" cy="12.07" rx="0.81" ry="0.84"/>
	</g>
	<g>
		<ellipse class="st0" cx="45.68" cy="10.3" rx="0.81" ry="0.84"/>
	</g>
	<g>
		<path class="st0" d="M38.47,11.17c0-0.46,0.36-0.84,0.81-0.84s0.81,0.38,0.81,0.84c0,0.46-0.36,0.84-0.81,0.84
			S38.47,11.63,38.47,11.17z"/>
	</g>
	<g>
		<ellipse class="st0" cx="26.15" cy="20.4" rx="0.81" ry="0.84"/>
	</g>
	<g>
		<path class="st0" d="M26.21,17.17c0-0.46,0.36-0.84,0.81-0.84s0.81,0.38,0.81,0.84c0,0.46-0.36,0.84-0.81,0.84
			S26.21,17.63,26.21,17.17z"/>
	</g>
	<g>
		<path class="st0" d="M15.82,20.14c0-0.46,0.36-0.84,0.81-0.84c0.45,0,0.81,0.38,0.81,0.84c0,0.46-0.36,0.84-0.81,0.84
			C16.18,20.98,15.82,20.6,15.82,20.14z"/>
	</g>
	<g>
		<path class="st0" d="M23.62,22.69c0-0.46,0.36-0.84,0.81-0.84s0.81,0.38,0.81,0.84s-0.36,0.84-0.81,0.84S23.62,23.15,23.62,22.69z
			"/>
	</g>
	<g>
		<path class="st0" d="M19.94,23.47c0-0.46,0.36-0.84,0.81-0.84s0.81,0.38,0.81,0.84c0,0.46-0.36,0.84-0.81,0.84
			S19.94,23.93,19.94,23.47z"/>
	</g>
	<g>
		<path class="st0" d="M23.37,16.01c0-0.46,0.36-0.84,0.81-0.84c0.45,0,0.81,0.38,0.81,0.84c0,0.46-0.36,0.84-0.81,0.84
			C23.73,16.85,23.37,16.47,23.37,16.01z"/>
	</g>
	<g>
		<path class="st0" d="M13.41,41.9c0-0.46,0.36-0.84,0.81-0.84c0.45,0,0.81,0.38,0.81,0.84c0,0.46-0.36,0.84-0.81,0.84
			C13.78,42.74,13.41,42.36,13.41,41.9z"/>
	</g>
	<g>
		<ellipse class="st0" cx="15.5" cy="38.19" rx="0.81" ry="0.84"/>
	</g>
	<g>
		<path class="st0" d="M16.47,34.93c0-0.46,0.36-0.84,0.81-0.84s0.81,0.38,0.81,0.84c0,0.46-0.36,0.84-0.81,0.84
			S16.47,35.39,16.47,34.93z"/>
	</g>
	<g>
		<path class="st0" d="M20.12,42.67c0-0.46,0.36-0.84,0.81-0.84s0.81,0.38,0.81,0.84s-0.36,0.84-0.81,0.84S20.12,43.14,20.12,42.67z
			"/>
	</g>
	<g>
		<path class="st0" d="M7.08,42.67c0-0.46,0.36-0.84,0.81-0.84s0.81,0.38,0.81,0.84s-0.36,0.84-0.81,0.84S7.08,43.14,7.08,42.67z"/>
	</g>
	<g>
		<path class="st0" d="M5.14,49.71c0-0.46,0.36-0.84,0.81-0.84c0.45,0,0.81,0.38,0.81,0.84c0,0.46-0.36,0.84-0.81,0.84
			C5.51,50.55,5.14,50.17,5.14,49.71z"/>
	</g>
	<g>
		<ellipse class="st0" cx="10.26" cy="48.74" rx="0.81" ry="0.84"/>
	</g>
	<g>
		<path class="st0" d="M12.35,52.16c0-0.46,0.36-0.84,0.81-0.84c0.45,0,0.81,0.38,0.81,0.84c0,0.46-0.36,0.84-0.81,0.84
			C12.71,53,12.35,52.63,12.35,52.16z"/>
	</g>
	<g>
		<path class="st0" d="M15.5,54.39c0-0.46,0.36-0.84,0.81-0.84c0.45,0,0.81,0.38,0.81,0.84c0,0.46-0.36,0.84-0.81,0.84
			C15.87,55.23,15.5,54.85,15.5,54.39z"/>
	</g>
</g>
<line class="st5" x1="122.97" y1="71.21" x2="150.97" y2="71.21"/>
</svg>
